<svg width="389" height="355" viewBox="0 0 389 355" fill="none" xmlns="http://www.w3.org/2000/svg">
<g style="mix-blend-mode:multiply" opacity="0.6">
<path d="M316.102 217.87L312.314 223.203C312.793 223.812 313.228 224.443 313.598 225.096L322.459 227.208V233.977L313.25 236.198C312.858 236.829 312.379 237.438 311.856 238.048L315.536 243.163L307.284 247.952L298.031 245.753C296.986 246.036 295.897 246.276 294.809 246.472L291.173 251.587H279.481L275.627 246.232C274.561 245.993 273.472 245.732 272.427 245.427L263.609 247.56L255.314 242.771L259.102 237.438C258.623 236.807 258.21 236.176 257.84 235.545L249 233.433V226.664L258.166 224.443C258.558 223.812 259.037 223.203 259.56 222.593L255.858 217.478L264.11 212.689L273.341 214.909C274.408 214.648 275.497 214.387 276.607 214.191L280.243 209.076H291.935L295.81 214.409C296.877 214.648 297.966 214.909 299.011 215.214L307.828 213.103L316.124 217.892L316.102 217.87Z" fill="#2A637A"/>
</g>
<path d="M292.458 189.42C288.734 191.575 282.725 191.575 279.002 189.42C275.279 187.265 275.279 183.804 279.002 181.649C282.725 179.494 288.734 179.494 292.458 181.649C296.181 183.804 296.181 187.265 292.458 189.42Z" fill="#DC97D3"/>
<path d="M295.244 185.48V228.949C295.266 230.364 294.33 231.801 292.457 232.889C288.734 235.044 282.725 235.044 279.002 232.889C277.173 231.823 276.237 230.451 276.215 229.058V185.589C276.237 186.982 277.173 188.354 279.002 189.42C282.725 191.575 288.734 191.575 292.457 189.42C294.33 188.332 295.266 186.917 295.244 185.48Z" fill="url(#paint0_linear_747_8755)"/>
<path d="M259.581 180.496L259.56 193.382L255.858 188.267L255.88 175.38L259.581 180.496Z" fill="#385A71"/>
<path d="M316.102 175.794L316.08 188.68L312.292 194.035L312.314 181.149L316.102 175.794Z" fill="#2A637A"/>
<path d="M257.84 193.447L257.818 206.333L249 204.222L249.022 191.336L257.84 193.447Z" fill="#385A71"/>
<path d="M322.481 191.923L322.459 204.81L313.228 207.03L311.421 199.477L313.272 194.144L322.481 191.923Z" fill="#385A71"/>
<path d="M259.124 195.341L259.08 208.227C258.601 207.596 258.188 206.964 257.817 206.333L257.861 193.447C258.231 194.078 258.645 194.71 259.124 195.341Z" fill="#06314D"/>
<path d="M313.272 194.144L313.228 207.03C312.836 207.661 312.357 208.271 311.835 208.88L311.878 195.994C312.401 195.384 312.88 194.775 313.272 194.144Z" fill="#2A637A"/>
<path d="M275.627 204.157L275.584 217.043C274.517 216.803 273.428 216.542 272.383 216.237L272.427 203.351C273.472 203.656 274.539 203.939 275.627 204.157Z" fill="#547083"/>
<path d="M298.052 203.678L298.009 216.564C296.964 216.847 295.875 217.086 294.787 217.282L294.83 204.396C295.919 204.2 297.007 203.939 298.052 203.678Z" fill="#547083"/>
<path d="M272.449 203.351L272.405 216.237L263.587 218.37L263.609 205.484L272.449 203.351Z" fill="#385A71"/>
<path d="M263.609 205.484L263.588 218.37L255.292 213.582L255.314 200.696L263.609 205.484Z" fill="#033537"/>
<path d="M307.306 205.876L307.262 218.762L298.009 216.564L298.053 203.678L307.306 205.876Z" fill="#385A71"/>
<path d="M315.557 201.087L315.514 213.974L307.262 218.762L307.306 205.876L315.557 201.087Z" fill="#033537"/>
<path d="M294.83 204.396L294.787 217.282L291.151 222.397L291.173 209.511L294.83 204.396Z" fill="#2A637A"/>
<path d="M279.481 209.511L279.46 222.397L275.606 217.043L275.628 204.157L279.481 209.511Z" fill="#385A71"/>
<path d="M291.173 209.511L291.151 222.397H279.459L279.481 209.511H291.173Z" fill="#033537"/>
<path d="M316.102 175.794L312.314 181.127C312.793 181.736 313.228 182.368 313.598 183.021L322.459 185.132V191.902L313.25 194.122C312.858 194.753 312.379 195.363 311.856 195.972L315.536 201.087L307.284 205.876L298.031 203.678C296.986 203.961 295.897 204.2 294.809 204.396L291.173 209.511H279.481L275.627 204.156C274.561 203.917 273.472 203.656 272.427 203.351L263.609 205.484L255.314 200.696L259.102 195.363C258.623 194.731 258.21 194.1 257.84 193.469L249 191.357V184.588L258.166 182.368C258.558 181.736 259.037 181.127 259.56 180.517L255.858 175.402L264.11 170.613L273.341 172.834C274.408 172.572 275.497 172.311 276.607 172.115L280.243 167H291.935L295.81 172.333C296.877 172.572 297.966 172.834 299.011 173.138L307.828 171.027L316.124 175.816L316.102 175.794Z" fill="url(#paint1_linear_747_8755)"/>
<path d="M285.729 191.118C294.146 191.118 300.97 187.181 300.97 182.324C300.97 177.467 294.146 173.53 285.729 173.53C277.312 173.53 270.489 177.467 270.489 182.324C270.489 187.181 277.312 191.118 285.729 191.118Z" fill="url(#paint2_linear_747_8755)"/>
<path d="M291.129 185.437C288.146 187.156 283.334 187.156 280.351 185.437C277.369 183.717 277.369 180.931 280.351 179.211C283.334 177.492 288.146 177.492 291.129 179.211C294.111 180.931 294.111 183.717 291.129 185.437Z" fill="#033537"/>
<path d="M300.97 182.237V187.657C301.013 189.943 299.511 192.228 296.507 193.948C290.563 197.387 280.896 197.387 274.952 193.948C272.013 192.25 270.532 190.03 270.489 187.809V182.389C270.532 184.61 272.013 186.83 274.952 188.528C280.896 191.967 290.563 191.967 296.507 188.528C299.511 186.786 301.013 184.501 300.97 182.237Z" fill="#06314D"/>
<g style="mix-blend-mode:multiply" opacity="0.6">
<path d="M144.102 216.87L140.314 222.203C140.793 222.812 141.228 223.443 141.598 224.096L150.459 226.208V232.977L141.25 235.198C140.858 235.829 140.379 236.438 139.856 237.048L143.536 242.163L135.284 246.952L126.031 244.753C124.986 245.036 123.897 245.276 122.809 245.472L119.173 250.587H107.481L103.627 245.232C102.561 244.993 101.472 244.732 100.427 244.427L91.6092 246.56L83.3139 241.771L87.1023 236.438C86.6233 235.807 86.2096 235.176 85.8395 234.545L77 232.433V225.664L86.1661 223.443C86.558 222.812 87.037 222.203 87.5595 221.593L83.8582 216.478L92.1099 211.689L101.341 213.909C102.408 213.648 103.497 213.387 104.607 213.191L108.243 208.076H119.935L123.81 213.409C124.877 213.648 125.966 213.909 127.011 214.214L135.828 212.103L144.124 216.892L144.102 216.87Z" fill="#2A637A"/>
</g>
<path d="M120.458 188.42C116.734 190.575 110.725 190.575 107.002 188.42C103.279 186.265 103.279 182.804 107.002 180.649C110.725 178.494 116.734 178.494 120.458 180.649C124.181 182.804 124.181 186.265 120.458 188.42Z" fill="#DC97D3"/>
<path d="M123.244 184.48V227.949C123.266 229.364 122.33 230.801 120.457 231.889C116.734 234.044 110.725 234.044 107.002 231.889C105.173 230.823 104.237 229.451 104.215 228.058V184.589C104.237 185.982 105.173 187.354 107.002 188.42C110.725 190.575 116.734 190.575 120.457 188.42C122.33 187.332 123.266 185.917 123.244 184.48Z" fill="url(#paint3_linear_747_8755)"/>
<path d="M87.5815 179.496L87.5597 192.382L83.8584 187.267L83.8802 174.38L87.5815 179.496Z" fill="#385A71"/>
<path d="M144.102 174.794L144.08 187.68L140.292 193.035L140.314 180.149L144.102 174.794Z" fill="#2A637A"/>
<path d="M85.8395 192.447L85.8178 205.333L77 203.222L77.0218 190.336L85.8395 192.447Z" fill="#385A71"/>
<path d="M150.481 190.923L150.459 203.81L141.228 206.03L139.421 198.477L141.272 193.144L150.481 190.923Z" fill="#385A71"/>
<path d="M87.1237 194.341L87.0801 207.227C86.6012 206.596 86.1875 205.964 85.8174 205.333L85.8609 192.447C86.231 193.078 86.6447 193.71 87.1237 194.341Z" fill="#06314D"/>
<path d="M141.272 193.144L141.228 206.03C140.836 206.661 140.357 207.271 139.835 207.88L139.878 194.994C140.401 194.384 140.88 193.775 141.272 193.144Z" fill="#2A637A"/>
<path d="M103.627 203.157L103.584 216.043C102.517 215.803 101.428 215.542 100.383 215.237L100.427 202.351C101.472 202.656 102.539 202.939 103.627 203.157Z" fill="#547083"/>
<path d="M126.052 202.678L126.009 215.564C124.964 215.847 123.875 216.086 122.787 216.282L122.83 203.396C123.919 203.2 125.007 202.939 126.052 202.678Z" fill="#547083"/>
<path d="M100.449 202.351L100.405 215.237L91.5874 217.37L91.6092 204.484L100.449 202.351Z" fill="#385A71"/>
<path d="M91.6095 204.484L91.5877 217.37L83.2925 212.582L83.3142 199.696L91.6095 204.484Z" fill="#033537"/>
<path d="M135.306 204.876L135.262 217.762L126.009 215.564L126.053 202.678L135.306 204.876Z" fill="#385A71"/>
<path d="M143.557 200.087L143.514 212.974L135.262 217.762L135.306 204.876L143.557 200.087Z" fill="#033537"/>
<path d="M122.83 203.396L122.787 216.282L119.151 221.397L119.173 208.511L122.83 203.396Z" fill="#2A637A"/>
<path d="M107.481 208.511L107.46 221.397L103.606 216.043L103.628 203.157L107.481 208.511Z" fill="#385A71"/>
<path d="M119.173 208.511L119.151 221.397H107.459L107.481 208.511H119.173Z" fill="#033537"/>
<path d="M144.102 174.794L140.314 180.127C140.793 180.736 141.228 181.368 141.598 182.021L150.459 184.132V190.902L141.25 193.122C140.858 193.753 140.379 194.363 139.856 194.972L143.536 200.087L135.284 204.876L126.031 202.678C124.986 202.961 123.897 203.2 122.809 203.396L119.173 208.511H107.481L103.627 203.156C102.561 202.917 101.472 202.656 100.427 202.351L91.6092 204.484L83.3139 199.696L87.1023 194.363C86.6233 193.731 86.2096 193.1 85.8395 192.469L77 190.357V183.588L86.1661 181.368C86.558 180.736 87.037 180.127 87.5595 179.517L83.8582 174.402L92.1099 169.613L101.341 171.834C102.408 171.572 103.497 171.311 104.607 171.115L108.243 166H119.935L123.81 171.333C124.877 171.572 125.966 171.834 127.011 172.138L135.828 170.027L144.124 174.816L144.102 174.794Z" fill="url(#paint4_linear_747_8755)"/>
<path d="M113.729 190.118C122.146 190.118 128.97 186.181 128.97 181.324C128.97 176.467 122.146 172.53 113.729 172.53C105.312 172.53 98.4888 176.467 98.4888 181.324C98.4888 186.181 105.312 190.118 113.729 190.118Z" fill="url(#paint5_linear_747_8755)"/>
<path d="M119.129 184.437C116.146 186.156 111.334 186.156 108.351 184.437C105.369 182.717 105.369 179.931 108.351 178.211C111.334 176.492 116.146 176.492 119.129 178.211C122.111 179.931 122.111 182.717 119.129 184.437Z" fill="#033537"/>
<path d="M128.97 181.237V186.657C129.013 188.943 127.511 191.228 124.507 192.948C118.563 196.387 108.896 196.387 102.952 192.948C100.013 191.25 98.5323 189.03 98.4888 186.809V181.389C98.5323 183.61 100.013 185.83 102.952 187.528C108.896 190.967 118.563 190.967 124.507 187.528C127.511 185.786 129.013 183.501 128.97 181.237Z" fill="#06314D"/>
<g style="mix-blend-mode:multiply" opacity="0.6">
<path d="M159.102 261.87L155.314 267.203C155.793 267.812 156.228 268.443 156.598 269.096L165.459 271.208V277.977L156.25 280.198C155.858 280.829 155.379 281.438 154.856 282.048L158.536 287.163L150.284 291.952L141.031 289.753C139.986 290.036 138.897 290.276 137.809 290.472L134.173 295.587H122.481L118.627 290.232C117.561 289.993 116.472 289.732 115.427 289.427L106.609 291.56L98.3139 286.771L102.102 281.438C101.623 280.807 101.21 280.176 100.84 279.545L92 277.433V270.664L101.166 268.443C101.558 267.812 102.037 267.203 102.56 266.593L98.8582 261.478L107.11 256.689L116.341 258.909C117.408 258.648 118.497 258.387 119.607 258.191L123.243 253.076H134.935L138.81 258.409C139.877 258.648 140.966 258.909 142.011 259.214L150.828 257.103L159.124 261.892L159.102 261.87Z" fill="#2A637A"/>
</g>
<path d="M135.458 233.42C131.734 235.575 125.725 235.575 122.002 233.42C118.279 231.265 118.279 227.804 122.002 225.649C125.725 223.494 131.734 223.494 135.458 225.649C139.181 227.804 139.181 231.265 135.458 233.42Z" fill="#DC97D3"/>
<path d="M138.244 229.48V272.949C138.266 274.364 137.33 275.801 135.457 276.889C131.734 279.044 125.725 279.044 122.002 276.889C120.173 275.823 119.237 274.451 119.215 273.058V229.589C119.237 230.982 120.173 232.354 122.002 233.42C125.725 235.575 131.734 235.575 135.457 233.42C137.33 232.332 138.266 230.917 138.244 229.48Z" fill="url(#paint6_linear_747_8755)"/>
<path d="M102.581 224.496L102.56 237.382L98.8584 232.267L98.8802 219.38L102.581 224.496Z" fill="#385A71"/>
<path d="M159.102 219.794L159.08 232.68L155.292 238.035L155.314 225.149L159.102 219.794Z" fill="#2A637A"/>
<path d="M100.84 237.447L100.818 250.333L92 248.222L92.0218 235.336L100.84 237.447Z" fill="#385A71"/>
<path d="M165.481 235.923L165.459 248.81L156.228 251.03L154.421 243.477L156.272 238.144L165.481 235.923Z" fill="#385A71"/>
<path d="M102.124 239.341L102.08 252.227C101.601 251.596 101.188 250.964 100.817 250.333L100.861 237.447C101.231 238.078 101.645 238.71 102.124 239.341Z" fill="#06314D"/>
<path d="M156.272 238.144L156.228 251.03C155.836 251.661 155.357 252.271 154.835 252.88L154.878 239.994C155.401 239.384 155.88 238.775 156.272 238.144Z" fill="#2A637A"/>
<path d="M118.627 248.157L118.584 261.043C117.517 260.803 116.428 260.542 115.383 260.237L115.427 247.351C116.472 247.656 117.539 247.939 118.627 248.157Z" fill="#547083"/>
<path d="M141.052 247.678L141.009 260.564C139.964 260.847 138.875 261.086 137.787 261.282L137.83 248.396C138.919 248.2 140.007 247.939 141.052 247.678Z" fill="#547083"/>
<path d="M115.449 247.351L115.405 260.237L106.587 262.37L106.609 249.484L115.449 247.351Z" fill="#385A71"/>
<path d="M106.609 249.484L106.588 262.37L98.2925 257.582L98.3142 244.696L106.609 249.484Z" fill="#033537"/>
<path d="M150.306 249.876L150.262 262.762L141.009 260.564L141.053 247.678L150.306 249.876Z" fill="#385A71"/>
<path d="M158.557 245.087L158.514 257.974L150.262 262.762L150.306 249.876L158.557 245.087Z" fill="#033537"/>
<path d="M137.83 248.396L137.787 261.282L134.151 266.397L134.173 253.511L137.83 248.396Z" fill="#2A637A"/>
<path d="M122.481 253.511L122.46 266.397L118.606 261.043L118.628 248.157L122.481 253.511Z" fill="#385A71"/>
<path d="M134.173 253.511L134.151 266.397H122.459L122.481 253.511H134.173Z" fill="#033537"/>
<path d="M159.102 219.794L155.314 225.127C155.793 225.736 156.228 226.368 156.598 227.021L165.459 229.132V235.902L156.25 238.122C155.858 238.753 155.379 239.363 154.856 239.972L158.536 245.087L150.284 249.876L141.031 247.678C139.986 247.961 138.897 248.2 137.809 248.396L134.173 253.511H122.481L118.627 248.156C117.561 247.917 116.472 247.656 115.427 247.351L106.609 249.484L98.3139 244.696L102.102 239.363C101.623 238.731 101.21 238.1 100.84 237.469L92 235.357V228.588L101.166 226.368C101.558 225.736 102.037 225.127 102.56 224.517L98.8582 219.402L107.11 214.613L116.341 216.834C117.408 216.572 118.497 216.311 119.607 216.115L123.243 211H134.935L138.81 216.333C139.877 216.572 140.966 216.834 142.011 217.138L150.828 215.027L159.124 219.816L159.102 219.794Z" fill="url(#paint7_linear_747_8755)"/>
<path d="M128.729 235.118C137.146 235.118 143.97 231.181 143.97 226.324C143.97 221.467 137.146 217.53 128.729 217.53C120.312 217.53 113.489 221.467 113.489 226.324C113.489 231.181 120.312 235.118 128.729 235.118Z" fill="url(#paint8_linear_747_8755)"/>
<path d="M134.129 229.437C131.146 231.156 126.334 231.156 123.351 229.437C120.369 227.717 120.369 224.931 123.351 223.211C126.334 221.492 131.146 221.492 134.129 223.211C137.111 224.931 137.111 227.717 134.129 229.437Z" fill="#033537"/>
<path d="M143.97 226.237V231.657C144.013 233.943 142.511 236.228 139.507 237.948C133.563 241.387 123.896 241.387 117.952 237.948C115.013 236.25 113.532 234.03 113.489 231.809V226.389C113.532 228.61 115.013 230.83 117.952 232.528C123.896 235.967 133.563 235.967 139.507 232.528C142.511 230.786 144.013 228.501 143.97 226.237Z" fill="#06314D"/>
<g style="mix-blend-mode:multiply" opacity="0.6">
<path d="M230.102 245.87L226.314 251.203C226.793 251.812 227.228 252.443 227.598 253.096L236.459 255.208V261.977L227.25 264.198C226.858 264.829 226.379 265.438 225.856 266.048L229.536 271.163L221.284 275.952L212.031 273.753C210.986 274.036 209.897 274.276 208.809 274.472L205.173 279.587H193.481L189.627 274.232C188.561 273.993 187.472 273.732 186.427 273.427L177.609 275.56L169.314 270.771L173.102 265.438C172.623 264.807 172.21 264.176 171.84 263.545L163 261.433V254.664L172.166 252.443C172.558 251.812 173.037 251.203 173.56 250.593L169.858 245.478L178.11 240.689L187.341 242.909C188.408 242.648 189.497 242.387 190.607 242.191L194.243 237.076H205.935L209.81 242.409C210.877 242.648 211.966 242.909 213.011 243.214L221.828 241.103L230.124 245.892L230.102 245.87Z" fill="#2A637A"/>
</g>
<path d="M206.458 217.42C202.734 219.575 196.725 219.575 193.002 217.42C189.279 215.265 189.279 211.804 193.002 209.649C196.725 207.494 202.734 207.494 206.458 209.649C210.181 211.804 210.181 215.265 206.458 217.42Z" fill="#DC97D3"/>
<path d="M209.244 213.48V256.949C209.266 258.364 208.33 259.801 206.457 260.889C202.734 263.044 196.725 263.044 193.002 260.889C191.173 259.823 190.237 258.451 190.215 257.058V213.589C190.237 214.982 191.173 216.354 193.002 217.42C196.725 219.575 202.734 219.575 206.457 217.42C208.33 216.332 209.266 214.917 209.244 213.48Z" fill="url(#paint9_linear_747_8755)"/>
<path d="M173.581 208.496L173.56 221.382L169.858 216.267L169.88 203.38L173.581 208.496Z" fill="#385A71"/>
<path d="M230.102 203.794L230.08 216.68L226.292 222.035L226.314 209.149L230.102 203.794Z" fill="#2A637A"/>
<path d="M171.84 221.447L171.818 234.333L163 232.222L163.022 219.336L171.84 221.447Z" fill="#385A71"/>
<path d="M236.481 219.923L236.459 232.81L227.228 235.03L225.421 227.477L227.272 222.144L236.481 219.923Z" fill="#385A71"/>
<path d="M173.124 223.341L173.08 236.227C172.601 235.596 172.188 234.964 171.817 234.333L171.861 221.447C172.231 222.078 172.645 222.71 173.124 223.341Z" fill="#06314D"/>
<path d="M227.272 222.144L227.228 235.03C226.836 235.661 226.357 236.271 225.835 236.88L225.878 223.994C226.401 223.384 226.88 222.775 227.272 222.144Z" fill="#2A637A"/>
<path d="M189.627 232.157L189.584 245.043C188.517 244.803 187.428 244.542 186.383 244.237L186.427 231.351C187.472 231.656 188.539 231.939 189.627 232.157Z" fill="#547083"/>
<path d="M212.052 231.678L212.009 244.564C210.964 244.847 209.875 245.086 208.787 245.282L208.83 232.396C209.919 232.2 211.007 231.939 212.052 231.678Z" fill="#547083"/>
<path d="M186.449 231.351L186.405 244.237L177.587 246.37L177.609 233.484L186.449 231.351Z" fill="#385A71"/>
<path d="M177.609 233.484L177.588 246.37L169.292 241.582L169.314 228.696L177.609 233.484Z" fill="#033537"/>
<path d="M221.306 233.876L221.262 246.762L212.009 244.564L212.053 231.678L221.306 233.876Z" fill="#385A71"/>
<path d="M229.557 229.087L229.514 241.974L221.262 246.762L221.306 233.876L229.557 229.087Z" fill="#033537"/>
<path d="M208.83 232.396L208.787 245.282L205.151 250.397L205.173 237.511L208.83 232.396Z" fill="#2A637A"/>
<path d="M193.481 237.511L193.46 250.397L189.606 245.043L189.628 232.157L193.481 237.511Z" fill="#385A71"/>
<path d="M205.173 237.511L205.151 250.397H193.459L193.481 237.511H205.173Z" fill="#033537"/>
<path d="M230.102 203.794L226.314 209.127C226.793 209.736 227.228 210.368 227.598 211.021L236.459 213.132V219.902L227.25 222.122C226.858 222.753 226.379 223.363 225.856 223.972L229.536 229.087L221.284 233.876L212.031 231.678C210.986 231.961 209.897 232.2 208.809 232.396L205.173 237.511H193.481L189.627 232.156C188.561 231.917 187.472 231.656 186.427 231.351L177.609 233.484L169.314 228.696L173.102 223.363C172.623 222.731 172.21 222.1 171.84 221.469L163 219.357V212.588L172.166 210.368C172.558 209.736 173.037 209.127 173.56 208.517L169.858 203.402L178.11 198.613L187.341 200.834C188.408 200.572 189.497 200.311 190.607 200.115L194.243 195H205.935L209.81 200.333C210.877 200.572 211.966 200.834 213.011 201.138L221.828 199.027L230.124 203.816L230.102 203.794Z" fill="url(#paint10_linear_747_8755)"/>
<path d="M199.729 219.118C208.146 219.118 214.97 215.181 214.97 210.324C214.97 205.467 208.146 201.53 199.729 201.53C191.312 201.53 184.489 205.467 184.489 210.324C184.489 215.181 191.312 219.118 199.729 219.118Z" fill="url(#paint11_linear_747_8755)"/>
<path d="M205.129 213.437C202.146 215.156 197.334 215.156 194.351 213.437C191.369 211.717 191.369 208.931 194.351 207.211C197.334 205.492 202.146 205.492 205.129 207.211C208.111 208.931 208.111 211.717 205.129 213.437Z" fill="#033537"/>
<path d="M214.97 210.237V215.657C215.013 217.943 213.511 220.228 210.507 221.948C204.563 225.387 194.896 225.387 188.952 221.948C186.013 220.25 184.532 218.03 184.489 215.809V210.389C184.532 212.61 186.013 214.83 188.952 216.528C194.896 219.967 204.563 219.967 210.507 216.528C213.511 214.786 215.013 212.501 214.97 210.237Z" fill="#06314D"/>
<g style="mix-blend-mode:multiply" opacity="0.6">
<path d="M217.102 292.87L213.314 298.203C213.793 298.812 214.228 299.443 214.598 300.096L223.459 302.208V308.977L214.25 311.198C213.858 311.829 213.379 312.438 212.856 313.048L216.536 318.163L208.284 322.952L199.031 320.753C197.986 321.036 196.897 321.276 195.809 321.472L192.173 326.587H180.481L176.627 321.232C175.561 320.993 174.472 320.732 173.427 320.427L164.609 322.56L156.314 317.771L160.102 312.438C159.623 311.807 159.21 311.176 158.84 310.545L150 308.433V301.664L159.166 299.443C159.558 298.812 160.037 298.203 160.56 297.593L156.858 292.478L165.11 287.689L174.341 289.909C175.408 289.648 176.497 289.387 177.607 289.191L181.243 284.076H192.935L196.81 289.409C197.877 289.648 198.966 289.909 200.011 290.214L208.828 288.103L217.124 292.892L217.102 292.87Z" fill="#2A637A"/>
</g>
<path d="M193.458 264.42C189.734 266.575 183.725 266.575 180.002 264.42C176.279 262.265 176.279 258.804 180.002 256.649C183.725 254.494 189.734 254.494 193.458 256.649C197.181 258.804 197.181 262.265 193.458 264.42Z" fill="#DC97D3"/>
<path d="M196.244 260.48V303.949C196.266 305.364 195.33 306.801 193.457 307.889C189.734 310.044 183.725 310.044 180.002 307.889C178.173 306.823 177.237 305.451 177.215 304.058V260.589C177.237 261.982 178.173 263.354 180.002 264.42C183.725 266.575 189.734 266.575 193.457 264.42C195.33 263.332 196.266 261.917 196.244 260.48Z" fill="url(#paint12_linear_747_8755)"/>
<path d="M160.581 255.496L160.56 268.382L156.858 263.267L156.88 250.38L160.581 255.496Z" fill="#385A71"/>
<path d="M217.102 250.794L217.08 263.68L213.292 269.035L213.314 256.149L217.102 250.794Z" fill="#2A637A"/>
<path d="M158.84 268.447L158.818 281.333L150 279.222L150.022 266.336L158.84 268.447Z" fill="#385A71"/>
<path d="M223.481 266.923L223.459 279.81L214.228 282.03L212.421 274.477L214.272 269.144L223.481 266.923Z" fill="#385A71"/>
<path d="M160.124 270.341L160.08 283.227C159.601 282.596 159.188 281.964 158.817 281.333L158.861 268.447C159.231 269.078 159.645 269.71 160.124 270.341Z" fill="#06314D"/>
<path d="M214.272 269.144L214.228 282.03C213.836 282.661 213.357 283.271 212.835 283.88L212.878 270.994C213.401 270.384 213.88 269.775 214.272 269.144Z" fill="#2A637A"/>
<path d="M176.627 279.157L176.584 292.043C175.517 291.803 174.428 291.542 173.383 291.237L173.427 278.351C174.472 278.656 175.539 278.939 176.627 279.157Z" fill="#547083"/>
<path d="M199.052 278.678L199.009 291.564C197.964 291.847 196.875 292.086 195.787 292.282L195.83 279.396C196.919 279.2 198.007 278.939 199.052 278.678Z" fill="#547083"/>
<path d="M173.449 278.351L173.405 291.237L164.587 293.37L164.609 280.484L173.449 278.351Z" fill="#385A71"/>
<path d="M164.609 280.484L164.588 293.37L156.292 288.582L156.314 275.696L164.609 280.484Z" fill="#033537"/>
<path d="M208.306 280.876L208.262 293.762L199.009 291.564L199.053 278.678L208.306 280.876Z" fill="#385A71"/>
<path d="M216.557 276.087L216.514 288.974L208.262 293.762L208.306 280.876L216.557 276.087Z" fill="#033537"/>
<path d="M195.83 279.396L195.787 292.282L192.151 297.397L192.173 284.511L195.83 279.396Z" fill="#2A637A"/>
<path d="M180.481 284.511L180.46 297.397L176.606 292.043L176.628 279.157L180.481 284.511Z" fill="#385A71"/>
<path d="M192.173 284.511L192.151 297.397H180.459L180.481 284.511H192.173Z" fill="#033537"/>
<path d="M217.102 250.794L213.314 256.127C213.793 256.736 214.228 257.368 214.598 258.021L223.459 260.132V266.902L214.25 269.122C213.858 269.753 213.379 270.363 212.856 270.972L216.536 276.087L208.284 280.876L199.031 278.678C197.986 278.961 196.897 279.2 195.809 279.396L192.173 284.511H180.481L176.627 279.156C175.561 278.917 174.472 278.656 173.427 278.351L164.609 280.484L156.314 275.696L160.102 270.363C159.623 269.731 159.21 269.1 158.84 268.469L150 266.357V259.588L159.166 257.368C159.558 256.736 160.037 256.127 160.56 255.517L156.858 250.402L165.11 245.613L174.341 247.834C175.408 247.572 176.497 247.311 177.607 247.115L181.243 242H192.935L196.81 247.333C197.877 247.572 198.966 247.834 200.011 248.138L208.828 246.027L217.124 250.816L217.102 250.794Z" fill="url(#paint13_linear_747_8755)"/>
<path d="M186.729 266.118C195.146 266.118 201.97 262.181 201.97 257.324C201.97 252.467 195.146 248.53 186.729 248.53C178.312 248.53 171.489 252.467 171.489 257.324C171.489 262.181 178.312 266.118 186.729 266.118Z" fill="url(#paint14_linear_747_8755)"/>
<path d="M192.129 260.437C189.146 262.156 184.334 262.156 181.351 260.437C178.369 258.717 178.369 255.931 181.351 254.211C184.334 252.492 189.146 252.492 192.129 254.211C195.111 255.931 195.111 258.717 192.129 260.437Z" fill="#033537"/>
<path d="M201.97 257.237V262.657C202.013 264.943 200.511 267.228 197.507 268.948C191.563 272.387 181.896 272.387 175.952 268.948C173.013 267.25 171.532 265.03 171.489 262.809V257.389C171.532 259.61 173.013 261.83 175.952 263.528C181.896 266.967 191.563 266.967 197.507 263.528C200.511 261.786 202.013 259.501 201.97 257.237Z" fill="#06314D"/>
<g style="mix-blend-mode:multiply" opacity="0.6">
<path d="M300.102 262.87L296.314 268.203C296.793 268.812 297.228 269.443 297.598 270.096L306.459 272.208V278.977L297.25 281.198C296.858 281.829 296.379 282.438 295.856 283.048L299.536 288.163L291.284 292.952L282.031 290.753C280.986 291.036 279.897 291.276 278.809 291.472L275.173 296.587H263.481L259.627 291.232C258.561 290.993 257.472 290.732 256.427 290.427L247.609 292.56L239.314 287.771L243.102 282.438C242.623 281.807 242.21 281.176 241.84 280.545L233 278.433V271.664L242.166 269.443C242.558 268.812 243.037 268.203 243.56 267.593L239.858 262.478L248.11 257.689L257.341 259.909C258.408 259.648 259.497 259.387 260.607 259.191L264.243 254.076H275.935L279.81 259.409C280.877 259.648 281.966 259.909 283.011 260.214L291.828 258.103L300.124 262.892L300.102 262.87Z" fill="#2A637A"/>
</g>
<path d="M276.458 234.42C272.734 236.575 266.725 236.575 263.002 234.42C259.279 232.265 259.279 228.804 263.002 226.649C266.725 224.494 272.734 224.494 276.458 226.649C280.181 228.804 280.181 232.265 276.458 234.42Z" fill="#DC97D3"/>
<path d="M279.244 230.48V273.949C279.266 275.364 278.33 276.801 276.457 277.889C272.734 280.044 266.725 280.044 263.002 277.889C261.173 276.823 260.237 275.451 260.215 274.058V230.589C260.237 231.982 261.173 233.354 263.002 234.42C266.725 236.575 272.734 236.575 276.457 234.42C278.33 233.332 279.266 231.917 279.244 230.48Z" fill="url(#paint15_linear_747_8755)"/>
<path d="M243.581 225.496L243.56 238.382L239.858 233.267L239.88 220.38L243.581 225.496Z" fill="#385A71"/>
<path d="M300.102 220.794L300.08 233.68L296.292 239.035L296.314 226.149L300.102 220.794Z" fill="#2A637A"/>
<path d="M241.84 238.447L241.818 251.333L233 249.222L233.022 236.336L241.84 238.447Z" fill="#385A71"/>
<path d="M306.481 236.923L306.459 249.81L297.228 252.03L295.421 244.477L297.272 239.144L306.481 236.923Z" fill="#385A71"/>
<path d="M243.124 240.341L243.08 253.227C242.601 252.596 242.188 251.964 241.817 251.333L241.861 238.447C242.231 239.078 242.645 239.71 243.124 240.341Z" fill="#06314D"/>
<path d="M297.272 239.144L297.228 252.03C296.836 252.661 296.357 253.271 295.835 253.88L295.878 240.994C296.401 240.384 296.88 239.775 297.272 239.144Z" fill="#2A637A"/>
<path d="M259.627 249.157L259.584 262.043C258.517 261.803 257.428 261.542 256.383 261.237L256.427 248.351C257.472 248.656 258.539 248.939 259.627 249.157Z" fill="#547083"/>
<path d="M282.052 248.678L282.009 261.564C280.964 261.847 279.875 262.086 278.787 262.282L278.83 249.396C279.919 249.2 281.007 248.939 282.052 248.678Z" fill="#547083"/>
<path d="M256.449 248.351L256.405 261.237L247.587 263.37L247.609 250.484L256.449 248.351Z" fill="#385A71"/>
<path d="M247.609 250.484L247.588 263.37L239.292 258.582L239.314 245.696L247.609 250.484Z" fill="#033537"/>
<path d="M291.306 250.876L291.262 263.762L282.009 261.564L282.053 248.678L291.306 250.876Z" fill="#385A71"/>
<path d="M299.557 246.087L299.514 258.974L291.262 263.762L291.306 250.876L299.557 246.087Z" fill="#033537"/>
<path d="M278.83 249.396L278.787 262.282L275.151 267.397L275.173 254.511L278.83 249.396Z" fill="#2A637A"/>
<path d="M263.481 254.511L263.46 267.397L259.606 262.043L259.628 249.157L263.481 254.511Z" fill="#385A71"/>
<path d="M275.173 254.511L275.151 267.397H263.459L263.481 254.511H275.173Z" fill="#033537"/>
<path d="M300.102 220.794L296.314 226.127C296.793 226.736 297.228 227.368 297.598 228.021L306.459 230.132V236.902L297.25 239.122C296.858 239.753 296.379 240.363 295.856 240.972L299.536 246.087L291.284 250.876L282.031 248.678C280.986 248.961 279.897 249.2 278.809 249.396L275.173 254.511H263.481L259.627 249.156C258.561 248.917 257.472 248.656 256.427 248.351L247.609 250.484L239.314 245.696L243.102 240.363C242.623 239.731 242.21 239.1 241.84 238.469L233 236.357V229.588L242.166 227.368C242.558 226.736 243.037 226.127 243.56 225.517L239.858 220.402L248.11 215.613L257.341 217.834C258.408 217.572 259.497 217.311 260.607 217.115L264.243 212H275.935L279.81 217.333C280.877 217.572 281.966 217.834 283.011 218.138L291.828 216.027L300.124 220.816L300.102 220.794Z" fill="url(#paint16_linear_747_8755)"/>
<path d="M269.729 236.118C278.146 236.118 284.97 232.181 284.97 227.324C284.97 222.467 278.146 218.53 269.729 218.53C261.312 218.53 254.489 222.467 254.489 227.324C254.489 232.181 261.312 236.118 269.729 236.118Z" fill="url(#paint17_linear_747_8755)"/>
<path d="M275.129 230.437C272.146 232.156 267.334 232.156 264.351 230.437C261.369 228.717 261.369 225.931 264.351 224.211C267.334 222.492 272.146 222.492 275.129 224.211C278.111 225.931 278.111 228.717 275.129 230.437Z" fill="#033537"/>
<path d="M284.97 227.237V232.657C285.013 234.943 283.511 237.228 280.507 238.948C274.563 242.387 264.896 242.387 258.952 238.948C256.013 237.25 254.532 235.03 254.489 232.809V227.389C254.532 229.61 256.013 231.83 258.952 233.528C264.896 236.967 274.563 236.967 280.507 233.528C283.511 231.786 285.013 229.501 284.97 227.237Z" fill="#06314D"/>
<path d="M105.702 81.4962C109.752 79.1671 113.04 73.9647 113.04 69.9161C113.04 65.8674 109.752 64.4743 105.702 66.8251C101.653 69.176 98.3652 74.3566 98.3652 78.4052C98.3652 82.4539 101.653 83.847 105.702 81.4962Z" fill="#1EC2DF"/>
<path d="M84.7359 37.9837C87.022 36.6777 88.8726 33.7609 88.8726 31.4753C88.8726 29.1898 87.022 28.4062 84.7359 29.734C82.4498 31.04 80.5991 33.9568 80.5991 36.2423C80.5991 38.5279 82.4498 39.3115 84.7359 37.9837Z" fill="#1EC2DF"/>
<path d="M110.057 79.4935C107.901 83.6946 103.482 86.2414 101.326 84.5435C98.2562 86.3284 95.7524 90.2683 95.7524 93.3374V101.13C95.7524 102.436 96.8193 102.893 98.1256 102.131L113.257 93.381C114.564 92.6191 115.63 90.943 115.63 89.637V81.8444C115.63 78.7752 113.127 77.7086 110.057 79.4935Z" fill="#1EC2DF"/>
<path d="M66.5127 155.004C68.7988 153.698 70.6494 150.781 70.6494 148.495C70.6494 146.21 68.7988 145.426 66.5127 146.754C64.2266 148.06 62.376 150.977 62.376 153.262C62.376 155.548 64.2266 156.332 66.5127 155.004Z" fill="#1EC2DF"/>
<path d="M68.9727 153.872C67.7534 156.244 65.2714 157.659 64.0522 156.702C62.3104 157.703 60.917 159.923 60.917 161.643V166.018C60.917 166.758 61.5048 167.019 62.2451 166.584L70.758 161.664C71.4983 161.229 72.0861 160.293 72.0861 159.553V155.178C72.0861 153.436 70.6709 152.849 68.9509 153.85L68.9727 153.872Z" fill="#1EC2DF"/>
<path d="M32.1998 120.307C30.9805 122.68 28.4985 124.094 27.2792 123.137C25.5375 124.138 24.144 126.358 24.144 128.078V132.453C24.144 133.193 24.7319 133.454 25.4721 133.019L33.9851 128.1C34.7253 127.664 35.3132 126.728 35.3132 125.988V121.613C35.3132 119.872 33.898 119.284 32.178 120.285L32.1998 120.307Z" fill="#1EC2DF"/>
<path d="M87.1963 36.8517C85.9771 39.2243 83.4951 40.6392 82.2758 39.6815C80.5341 40.6827 79.1406 42.903 79.1406 44.6226V48.9978C79.1406 49.7379 79.7284 49.9991 80.4687 49.5637L88.9816 44.6444C89.7219 44.209 90.3098 43.273 90.3098 42.5329V38.1578C90.3098 36.4164 88.8946 35.8287 87.1746 36.83L87.1963 36.8517Z" fill="#1EC2DF"/>
<path d="M29.7607 121.417C32.0468 120.111 33.8975 117.194 33.8975 114.909C33.8975 112.623 32.0468 111.84 29.7607 113.167C27.4746 114.473 25.624 117.39 25.624 119.676C25.624 121.961 27.4746 122.745 29.7607 121.417Z" fill="#1EC2DF"/>
<path d="M168.929 96.842C167.709 99.2146 165.227 100.629 164.008 99.6717C162.266 100.673 160.873 102.893 160.873 104.613V108.988C160.873 109.728 161.461 109.989 162.201 109.554L170.714 104.635C171.454 104.199 172.042 103.263 172.042 102.523V98.148C172.042 96.4066 170.627 95.8189 168.907 96.8202L168.929 96.842Z" fill="url(#paint18_linear_747_8755)"/>
<path d="M166.468 85.806C162.593 88.048 159.153 91.7484 156.736 95.7971L122.924 88.418C126.473 82.345 128.628 75.8148 128.628 70.0466C128.628 57.6611 118.482 52.9594 105.702 60.3602C103.285 61.7533 100.934 63.4947 98.735 65.4537L91.0494 46.821C95.1208 42.2282 97.9077 36.3293 97.9077 31.3664C97.9077 24.0962 92.0074 21.6147 84.7355 25.794C77.4636 29.995 71.5633 39.3114 71.5633 46.5598C71.5633 53.8083 77.4636 56.3115 84.7355 52.1322C86.6079 51.0656 88.3714 49.629 89.9826 48.0182L97.6028 66.5203C89.1334 74.6176 83.059 86.1978 82.7978 95.8624L42.7588 116.694C42.8458 116.062 42.9329 115.431 42.9329 114.822C42.9329 107.551 37.0326 105.07 29.7607 109.249C27.3876 110.62 25.1886 112.58 23.2509 114.8L1.0432 103.307C0.825481 103.198 0.433583 103.394 0.194089 103.764C-0.0454053 104.134 -0.0671536 104.526 0.150568 104.635L22.2058 116.041C18.8311 120.372 16.5885 125.596 16.5885 130.037C16.5885 137.307 22.4888 139.788 29.7607 135.609C35.9876 132.018 41.2129 124.639 42.5627 118.021L82.7978 97.0813C83.0155 105.418 87.7836 109.989 94.7725 109.75L75.6565 141.29C73.2833 140.354 70.061 140.79 66.5121 142.836C59.2402 147.037 53.34 156.353 53.34 163.602C53.34 170.85 59.2402 173.353 66.5121 169.174C73.7841 164.973 79.6844 155.657 79.6844 148.408C79.6844 145.143 78.4433 142.901 76.4621 141.726L95.9264 109.641C98.9092 109.336 102.219 108.248 105.724 106.224C112.168 102.501 117.982 96.4718 122.14 89.7893L155.996 97.1902C154.341 100.346 153.318 103.633 153.318 106.594C153.318 113.864 159.218 116.345 166.49 112.166C173.762 107.965 179.662 98.6486 179.662 91.4001C179.662 84.1517 173.762 81.6484 166.49 85.8277L166.468 85.806ZM84.7572 50.935C78.1603 54.7443 72.7825 52.4805 72.7825 45.885C72.7825 39.2896 78.1603 30.8222 84.7572 27.0129C91.3542 23.2037 96.7319 25.4675 96.7319 32.0629C96.7319 38.6584 91.3542 47.1258 84.7572 50.935ZM29.7607 134.39C23.1637 138.199 17.786 135.936 17.786 129.34C17.786 122.745 23.142 114.277 29.7607 110.468C36.3577 106.659 41.7355 108.923 41.7355 115.518C41.7355 122.114 36.3577 130.581 29.7607 134.39ZM78.4868 149.083C78.4868 155.678 73.1091 164.146 66.5121 167.955C59.9152 171.764 54.5374 169.501 54.5374 162.905C54.5374 156.31 59.9152 147.842 66.5121 144.033C73.1091 140.224 78.4868 142.488 78.4868 149.083ZM105.702 105.005C93.7274 111.927 83.9735 107.813 83.9735 95.8188C83.9735 83.8252 93.7274 68.4576 105.702 61.5574C117.677 54.6354 127.431 58.7494 127.431 70.7431C127.431 82.7368 117.677 98.1044 105.702 105.005ZM166.468 110.947C159.871 114.756 154.494 112.492 154.494 105.897C154.494 99.3016 159.871 90.8342 166.468 87.0249C173.065 83.2157 178.443 85.4794 178.443 92.0749C178.443 98.6703 173.065 107.138 166.468 110.947Z" fill="url(#paint19_linear_747_8755)"/>
<path d="M166.469 97.9738C168.755 96.6678 170.606 93.751 170.606 91.4655C170.606 89.1799 168.755 88.3963 166.469 89.7241C164.183 91.0301 162.332 93.9469 162.332 96.2324C162.332 98.518 164.183 99.3016 166.469 97.9738Z" fill="url(#paint20_linear_747_8755)"/>
<path d="M349.05 77.208C352.577 75.1619 355.451 70.6561 355.451 67.1081C355.451 63.56 352.577 62.3629 349.05 64.409C345.523 66.4551 342.649 70.9609 342.649 74.5089C342.649 78.057 345.523 79.2541 349.05 77.208Z" fill="#1EC2DF"/>
<path d="M351.576 142.749C353.862 141.443 355.712 138.526 355.712 136.241C355.712 133.955 353.862 133.171 351.576 134.499C349.29 135.827 347.439 138.722 347.439 141.008C347.439 143.293 349.29 144.077 351.576 142.749Z" fill="#1EC2DF"/>
<path d="M349.115 144.468C347.373 145.47 345.98 147.69 345.98 149.41V153.785C345.98 154.525 346.568 154.786 347.308 154.351L355.821 149.431C356.561 148.996 357.149 148.06 357.149 147.32V142.945C357.149 141.203 355.734 140.616 354.014 141.617C352.795 143.99 350.313 145.404 349.093 144.447L349.115 144.468Z" fill="#1EC2DF"/>
<path d="M352.86 75.4667C350.966 79.1236 347.134 81.3438 345.239 79.8637C342.562 81.4091 340.384 84.8483 340.384 87.5257V94.317C340.384 95.4707 341.321 95.8407 342.453 95.1877L355.647 87.5692C356.779 86.9162 357.715 85.4578 357.715 84.3042V77.5128C357.715 74.8355 355.538 73.8995 352.86 75.4667Z" fill="#1EC2DF"/>
<path d="M292.29 141.9C291.31 143.794 289.329 144.926 288.371 144.164C286.978 144.969 285.867 146.732 285.867 148.104V151.608C285.867 152.196 286.346 152.392 286.934 152.065L293.727 148.147C294.315 147.799 294.794 147.059 294.794 146.471V142.967C294.794 141.573 293.683 141.116 292.29 141.9Z" fill="#1EC2DF"/>
<path d="M388.218 28.2102C388.044 28.036 387.652 28.1884 387.391 28.5149L364.247 56.921C360.568 54.7661 355.125 55.1796 349.05 58.7059C341.517 63.0593 334.942 71.0261 331.502 79.167L289.808 87.112C291.463 83.9558 292.486 80.669 292.486 77.7086C292.486 70.4384 286.586 67.957 279.314 72.1362C272.042 76.3373 266.142 85.6536 266.142 92.9021C266.142 97.1902 268.232 99.7587 271.389 100.325L245.415 121.765C245.654 121.983 245.894 122.201 246.111 122.418L272.369 100.477C274.393 100.564 276.745 99.9764 279.292 98.4962C283.146 96.276 286.564 92.5973 288.981 88.5704L330.936 80.5601C329.673 83.9123 328.954 87.2644 328.954 90.3771C328.954 94.0993 330 96.9943 331.785 98.9533L300.433 134.717C299.105 131.103 295.099 130.233 290.309 132.997C284.452 136.371 279.684 143.902 279.684 149.758C279.684 155.613 284.452 157.638 290.309 154.242C296.166 150.868 300.934 143.337 300.934 137.481C300.934 136.85 300.847 136.284 300.738 135.74L332.394 99.6064C336.009 102.85 342.105 102.828 349.007 98.8445C349.072 98.801 349.137 98.7575 349.203 98.7139L350.901 131.038C343.934 135.392 338.36 144.338 338.36 151.39C338.36 158.443 344.26 161.142 351.532 156.963C358.804 152.783 364.704 143.445 364.704 136.197C364.704 128.948 359.109 126.619 352.098 130.363L350.4 97.9956C360.807 91.2696 369.059 77.8175 369.059 67.2169C369.059 62.6675 367.513 59.3589 364.944 57.4652L387.979 29.1897C388.262 28.8414 388.327 28.4279 388.153 28.2537L388.218 28.2102ZM279.336 97.2555C272.739 101.065 267.361 98.801 267.361 92.2055C267.361 85.6101 272.717 77.1427 279.336 73.3334C285.933 69.5242 291.31 71.788 291.31 78.3834C291.31 84.9789 285.933 93.4463 279.336 97.2555ZM290.331 153.023C285.127 156.027 280.903 154.242 280.903 149.04C280.903 143.837 285.127 137.176 290.331 134.173C295.534 131.169 299.758 132.954 299.758 138.156C299.758 143.358 295.534 150.019 290.331 153.023ZM363.55 136.85C363.55 143.445 358.173 151.913 351.576 155.722C344.979 159.531 339.601 157.267 339.601 150.672C339.601 144.077 344.979 135.609 351.576 131.8C358.173 127.991 363.55 130.254 363.55 136.85ZM367.927 67.8699C367.927 78.2746 359.457 91.6178 349.05 97.6256C338.643 103.633 330.174 100.063 330.174 89.6588C330.174 79.2541 338.643 65.9109 349.05 59.9031C359.457 53.8954 367.927 57.4652 367.927 67.8699Z" fill="url(#paint21_linear_747_8755)"/>
<path d="M281.795 83.1504C280.576 85.5231 278.094 86.9379 276.875 85.9802C275.133 86.9814 273.74 89.2017 273.74 90.9213V95.2965C273.74 96.0366 274.328 96.2978 275.068 95.8624L283.581 90.9431C284.321 90.5077 284.909 89.5717 284.909 88.8317V84.4565C284.909 82.7151 283.494 82.1274 281.774 83.1287L281.795 83.1504Z" fill="#1EC2DF"/>
<path d="M290.331 142.792C292.159 141.748 293.618 139.418 293.618 137.59C293.618 135.762 292.138 135.152 290.331 136.197C288.502 137.242 287.043 139.571 287.043 141.399C287.043 143.228 288.523 143.837 290.331 142.792Z" fill="#1EC2DF"/>
<path d="M279.335 84.2823C281.622 82.9763 283.472 80.0595 283.472 77.774C283.472 75.4884 281.622 74.7048 279.335 76.0326C277.049 77.3386 275.199 80.2554 275.199 82.541C275.199 84.8265 277.049 85.6101 279.335 84.2823Z" fill="#1EC2DF"/>
<path d="M174.894 197.711C174.959 201.019 176.113 209.334 185.475 215.168C200.498 224.528 224.905 216.583 225.297 197.558L174.894 197.711Z" fill="url(#paint22_linear_747_8755)"/>
<path d="M220.659 183.279C209.751 176.727 191.702 176.531 180.336 182.866C168.971 189.2 168.601 199.648 179.509 206.222C190.417 212.774 208.466 212.969 219.831 206.635C231.196 200.301 231.566 189.853 220.659 183.279Z" fill="url(#paint23_linear_747_8755)"/>
<path d="M174.023 194.816V190.593C174.023 194.337 176.418 198.081 181.251 200.998C191.201 206.984 207.704 207.158 218.068 201.368C223.402 198.386 226.102 194.424 226.08 190.441V194.663C226.102 198.647 223.424 202.608 218.068 205.59C207.683 211.381 191.201 211.206 181.251 205.22C176.418 202.304 174.001 198.56 174.001 194.816H174.023Z" fill="url(#paint24_linear_747_8755)"/>
<path d="M200.101 204.274C215.853 204.23 228.601 196.798 228.576 187.674C228.55 178.549 215.76 171.188 200.008 171.232C184.256 171.276 171.507 178.709 171.533 187.833C171.558 196.957 184.349 204.318 200.101 204.274Z" fill="url(#paint25_linear_747_8755)"/>
<path d="M174.001 187.785V183.54C174.001 187.284 176.396 191.028 181.229 193.945C191.179 199.931 207.682 200.105 218.046 194.315C223.38 191.333 226.08 187.371 226.058 183.388V187.633C226.08 191.616 223.402 195.578 218.046 198.56C207.661 204.35 191.179 204.176 181.229 198.19C176.396 195.273 173.979 191.529 173.979 187.785H174.001Z" fill="url(#paint26_linear_747_8755)"/>
<path d="M200.081 197.222C215.833 197.178 228.582 189.746 228.556 180.621C228.531 171.497 215.741 164.136 199.989 164.18C184.237 164.224 171.488 171.656 171.513 180.78C171.539 189.905 184.329 197.266 200.081 197.222Z" fill="url(#paint27_linear_747_8755)"/>
<path d="M174.001 180.754V176.51C174.001 180.254 176.396 183.997 181.229 186.914C191.179 192.9 207.682 193.074 218.046 187.284C223.38 184.302 226.08 180.341 226.058 176.357V180.602C226.08 184.585 223.402 188.547 218.046 191.529C207.661 197.319 191.179 197.145 181.229 191.159C176.396 188.242 173.979 184.498 173.979 180.754H174.001Z" fill="url(#paint28_linear_747_8755)"/>
<path d="M171.562 197.645V194.838C171.562 198.951 174.197 203.044 179.487 206.222C190.395 212.774 208.444 212.97 219.809 206.635C225.666 203.37 228.605 199.017 228.584 194.663V197.471C228.584 201.825 225.666 206.178 219.809 209.443C208.444 215.777 190.395 215.603 179.487 209.03C174.197 205.852 171.562 201.738 171.541 197.645H171.562Z" fill="url(#paint29_linear_747_8755)"/>
<path d="M171.54 190.593V187.785C171.54 191.899 174.175 195.991 179.465 199.169C190.373 205.721 208.422 205.917 219.788 199.583C225.644 196.318 228.583 191.964 228.562 187.611V190.419C228.562 194.772 225.644 199.126 219.788 202.391C208.422 208.725 190.373 208.551 179.465 201.977C174.175 198.799 171.54 194.685 171.519 190.593H171.54Z" fill="url(#paint30_linear_747_8755)"/>
<path d="M171.519 183.562V180.754C171.519 184.868 174.154 188.96 179.444 192.138C190.352 198.69 208.401 198.886 219.767 192.552C225.623 189.287 228.562 184.933 228.541 180.58V183.388C228.541 187.741 225.623 192.095 219.767 195.36C208.401 201.694 190.352 201.52 179.444 194.946C174.154 191.768 171.519 187.654 171.498 183.562H171.519Z" fill="url(#paint31_linear_747_8755)"/>
<path d="M232.808 159.771L167.078 159.967V171.329C167.121 171.634 167.121 171.96 167.165 172.265C167.578 178.186 171.062 183.214 177.528 187.219C186.738 192.922 201.434 194.489 213.278 191.05C219.984 189.091 231.001 184.259 232.656 173.245C232.786 172.548 232.851 171.83 232.851 171.133V159.771H232.808Z" fill="url(#paint32_linear_747_8755)"/>
<path d="M223.664 146.645C236.226 154.198 235.791 166.257 222.706 173.571C209.599 180.885 188.806 180.667 176.222 173.092C163.66 165.539 164.095 153.48 177.18 146.166C190.287 138.874 211.079 139.07 223.664 146.645Z" fill="url(#paint33_linear_747_8755)"/>
<path d="M257.628 81.8227C255.56 64.1913 246.263 49.9338 230.021 39.4203C227.191 37.7442 218.612 32.6507 205.789 31.3664C177.441 28.5367 155.756 46.2552 147.592 63.9083C137.032 86.7856 140.951 109.663 159.283 131.887C159.283 131.887 159.545 132.235 159.566 132.257C165.205 139.375 168.471 148.408 169.277 159.118C169.429 161.577 170.452 164.015 172.347 166.279C173.718 167.933 175.569 169.479 177.877 170.872C189.699 177.99 209.272 178.186 221.595 171.307C224.339 169.762 226.516 168.02 228.062 166.127C229.934 163.863 230.957 161.403 231.088 158.835C231.85 148.06 235.116 139.005 240.755 131.865C240.798 131.822 240.951 131.626 240.973 131.582C250.139 120.329 260.284 104.482 257.606 81.8227H257.628Z" fill="url(#paint34_radial_747_8755)"/>
<g style="mix-blend-mode:multiply" opacity="0.6">
<path d="M220.594 148.365C231.523 154.938 231.153 165.43 219.766 171.786C208.358 178.142 190.265 177.968 179.314 171.373C168.384 164.799 168.754 154.307 180.141 147.951C191.55 141.595 209.642 141.769 220.594 148.365Z" fill="#E8A000"/>
</g>
<path d="M218.721 81.6919C218.112 81.3001 217.328 81.496 216.936 82.0837L216.501 82.7803C216.348 82.7585 216.196 82.7368 216.043 82.7803C215.347 82.8674 214.955 83.4551 214.89 83.5639C214.628 83.8904 214.389 84.2387 214.171 84.5434C213.801 85.1094 213.431 85.6318 212.93 86.0454C212.407 86.4807 211.733 86.3719 211.166 86.2195C210.535 86.0454 209.555 86.1324 208.924 86.7637C208.467 87.2208 208.14 87.6997 207.814 88.1785C207.552 88.5703 207.269 88.9839 206.921 89.3757C206.442 89.9199 205.636 90.1158 205.179 90.007C205.092 90.007 205.027 89.9634 204.94 89.9417C204.352 89.7893 203.677 89.6152 202.98 90.094C202.371 90.5076 201.935 91.1389 201.478 91.8136C201.304 92.0749 201.13 92.3361 200.934 92.5973C200.716 92.902 200.368 93.3156 199.997 93.555C199.671 93.7727 199.322 93.7727 199.17 93.7727C198.931 93.7509 198.735 93.6856 198.517 93.6203C198.103 93.4897 197.69 93.3591 197.058 93.555C196.361 93.7945 195.599 94.7957 194.924 95.7317C194.293 96.646 193.509 97.3643 193.096 97.4513C192.725 97.5166 192.442 97.4296 192.138 97.3207C191.855 97.2337 191.55 97.1248 191.136 97.1466C190.461 97.1684 189.525 98.0173 188.937 98.8444L188.698 99.1927C188.132 99.9981 187.587 100.76 187.043 101.021C186.564 101.261 186.216 101.152 185.802 101.021C185.628 100.956 185.432 100.912 185.214 100.869C184.779 100.803 184.408 100.847 184.06 101.021C183.625 101.239 183.211 101.696 182.993 101.957C182.384 101.805 181.731 102.109 181.469 102.697C181.186 103.35 181.491 104.112 182.166 104.395L194.794 109.728V160.707C194.794 161.512 195.338 162.296 196.383 162.905C198.517 164.124 201.957 164.124 204.091 162.905C205.157 162.274 205.702 161.468 205.68 160.663V106.311C205.68 105.919 205.549 105.57 205.332 105.222L219.113 83.4986C219.505 82.8891 219.309 82.1055 218.721 81.7137V81.6919ZM203.263 103.677C201.151 102.871 198.256 103.002 196.405 104.069C195.273 104.722 194.75 105.614 194.816 106.463C194.816 106.419 194.816 106.376 194.816 106.311V106.92L183.516 102.153C183.799 101.827 184.082 101.587 184.3 101.478C184.561 101.348 184.822 101.326 185.127 101.369C185.301 101.391 185.497 101.456 185.649 101.5C186.128 101.652 186.607 101.805 187.282 101.478C187.957 101.152 188.523 100.346 189.133 99.4757L189.373 99.1274C189.982 98.2567 190.809 97.669 191.158 97.6472C191.484 97.6472 191.724 97.7125 191.985 97.7996C192.312 97.9084 192.682 98.0173 193.183 97.9302C193.858 97.8214 194.772 96.8201 195.338 96.0147C195.686 95.5358 196.579 94.2298 197.21 94.0339C197.668 93.8815 197.951 93.9686 198.343 94.0992C198.56 94.1645 198.8 94.2516 199.105 94.2733C199.497 94.3169 199.91 94.208 200.259 93.9904C200.585 93.7727 200.934 93.4244 201.325 92.902C201.521 92.619 201.717 92.3578 201.892 92.0966C202.327 91.4436 202.719 90.8777 203.263 90.5294C203.786 90.1811 204.221 90.3117 204.809 90.4641C204.896 90.4641 204.961 90.5076 205.048 90.5294C205.767 90.7035 206.725 90.377 207.291 89.7458C207.661 89.3322 207.944 88.9186 208.227 88.505C208.554 88.0262 208.859 87.5908 209.272 87.1555C209.751 86.6766 210.513 86.5895 211.014 86.7419C211.667 86.9161 212.516 87.0467 213.235 86.4807C213.801 86.0236 214.171 85.4577 214.585 84.8699C214.802 84.5434 215.02 84.2169 215.281 83.9122C215.303 83.8687 215.586 83.3898 216.087 83.3245C216.152 83.3245 203.22 103.72 203.22 103.72L203.263 103.677Z" fill="url(#paint35_linear_747_8755)"/>
<path style="mix-blend-mode:screen" d="M212.298 104.308C229.674 104.308 243.759 91.6195 243.759 75.9673C243.759 60.3151 229.674 47.6265 212.298 47.6265C194.923 47.6265 180.837 60.3151 180.837 75.9673C180.837 91.6195 194.923 104.308 212.298 104.308Z" fill="url(#paint36_linear_747_8755)"/>
<path d="M316.566 23.8132L302.893 31.7147V33.6302L316.566 25.7287V23.8132ZM332.808 14.4316L319.135 22.3331V24.2486L332.808 16.3471V14.4316ZM341.082 9.6646L335.377 12.9514V14.8669L341.082 11.5801V9.6646ZM343.651 8.18444V10.0999L357.519 2.08964V0.174133L343.651 8.18444ZM310.731 32.3677L302.893 36.8953V38.8108L310.731 34.2832V32.3677ZM325.906 23.6173L313.3 30.8875V32.8031L325.906 25.5328V23.6173ZM328.475 24.0527L336.945 19.1551V17.2396L328.475 22.1372V24.0527ZM339.514 17.6749L357.498 7.29198V5.37647L339.514 15.7594V17.6749ZM316.566 34.1962L302.893 42.0976V44.0131L316.566 36.1117V34.1962ZM332.808 24.8145L319.135 32.716V34.6315L332.808 26.73V24.8145ZM341.082 20.0475L335.377 23.3344V25.2499L341.082 21.963V20.0475ZM343.651 20.4829L357.519 12.4726V10.5571L343.651 18.5674V20.4829ZM310.731 42.7506L302.893 47.2782V49.1937L310.731 44.6661V42.7506ZM313.3 43.186L325.906 35.9158V34.0002L313.3 41.2705V43.186ZM328.475 34.4356L336.945 29.538V27.6225L328.475 32.5201V34.4356ZM339.514 28.0578L357.498 17.6749V15.7594L339.514 26.1423V28.0578ZM316.566 44.5791L302.893 52.4805V54.396L316.566 46.4946V44.5791ZM332.808 35.1974L319.135 43.0989V45.0144L332.808 37.1129V35.1974ZM335.377 35.6328L341.082 32.346V30.4304L335.377 33.7173V35.6328ZM343.651 30.8658L357.519 22.8772V20.9617L343.651 28.972V30.8875V30.8658ZM302.893 59.5766L310.731 55.0491V53.1336L302.893 57.6611V59.5766ZM313.3 53.5689L325.906 46.2987V44.3832L313.3 51.6534V53.5689ZM328.475 44.8185L336.945 39.9209V38.0054L328.475 42.903V44.8185ZM339.514 38.4407L357.498 28.0578V26.1423L339.514 36.5252V38.4407Z" fill="#06314D"/>
<path d="M37.6855 54.4178L24.0126 62.3192V64.2347L37.6855 56.3333V54.4178ZM58.0425 42.6635L40.2329 52.9376V54.8531L58.0425 44.579V42.6635ZM31.8288 62.9722L23.9908 67.4998V69.4153L31.8288 64.8877V62.9722ZM47.004 54.2219L34.3979 61.4921V63.4076L47.004 56.1374V54.2219ZM49.5731 54.6572L58.0425 49.7596V47.8441L49.5731 52.7417V54.6572ZM37.6637 64.8007L23.9908 72.7021V74.6177L37.6637 66.7162V64.8007ZM58.0207 53.0464L40.2111 63.3205V65.236L58.0207 54.9619V53.0464ZM31.807 73.3552L23.969 77.8827V79.7982L31.807 75.2707V73.3552ZM34.3762 73.7905L46.9822 66.5203V64.6048L34.3762 71.875V73.7905ZM49.5514 65.0401L58.0207 60.1425V58.227L49.5514 63.1246V65.0401ZM37.642 75.1836L23.969 83.0851V85.0006L37.642 77.0991V75.1836ZM57.999 63.4294L40.1893 73.7034V75.6189L57.999 65.3449V63.4294ZM23.9473 90.1594L31.7853 85.6318V83.7163L23.9473 88.2439V90.1594ZM34.3544 84.1517L46.9605 76.8814V74.9659L34.3544 82.2362V84.1517ZM49.5296 75.4013L57.999 70.5037V68.5882L49.5296 73.4858V75.4013Z" fill="#06314D"/>
<path d="M138.208 26.9912L130.37 31.5188V33.4343L138.208 28.9067V26.9912ZM140.777 27.4266L153.383 20.1564V18.2409L140.777 25.5111V27.4266ZM155.952 18.6762L164.422 13.7786V11.8631L155.952 16.7607V18.6762ZM166.991 12.2984L184.975 1.91551V0L166.991 10.3829V12.2984ZM144.043 28.8197L130.37 36.7211V38.6367L144.043 30.7352V28.8197ZM160.285 19.438L146.612 27.3395V29.255L160.285 21.3536V19.438ZM162.854 19.8734L168.559 16.5866V14.671L162.854 17.9579V19.8734ZM171.128 15.1064L184.997 7.09608V5.18057L171.128 13.1909V15.1064ZM130.37 43.8172L138.208 39.2897V37.3742L130.37 41.9017V43.8172ZM140.777 37.8095L153.383 30.5393V28.6238L140.777 35.894V37.8095ZM155.952 29.0591L164.422 24.1615V22.246L155.952 27.1436V29.0591ZM166.991 22.6813L184.975 12.2984V10.3829L166.991 20.7658V22.6813Z" fill="#06314D"/>
<path d="M19.9194 195.382L28.2364 190.593V188.677L19.9194 193.466V195.382ZM30.8055 189.113L36.5969 185.761V183.845L30.8055 187.197V189.113ZM39.166 184.28L48.92 178.643V176.727L39.166 182.365V184.28ZM35.16 189.875L19.9848 198.647V200.562L35.16 191.79V189.875ZM37.7291 190.31L40.7336 188.569V186.653L37.7291 188.394V190.31ZM43.3028 187.088L48.92 183.845V181.93L43.3028 185.173V187.088ZM20.0719 205.678L39.2967 194.576V192.661L20.0719 203.762V205.678ZM41.8658 193.096L48.92 189.026V187.11L41.8658 191.181V193.096Z" fill="#06314D"/>
<path d="M350.16 174.376L345.37 177.141V179.056L350.16 176.292V174.376ZM352.729 174.812L361.046 170.023V168.108L352.729 172.896V174.812ZM363.615 168.543L373.413 162.883V160.968L363.615 166.627V168.543ZM356.017 176.205L345.392 182.343V184.259L356.017 178.12V176.205ZM367.97 169.305L358.586 174.725V176.64L367.97 171.22V169.305ZM370.539 169.74L373.5 168.042V166.127L370.539 167.825V169.74ZM345.392 189.439L350.182 186.675V184.759L345.392 187.524V189.439ZM352.751 185.195L361.068 180.406V178.49L352.751 183.279V185.195ZM363.637 178.926L373.63 173.158V171.242L363.637 177.01V178.926Z" fill="#06314D"/>
<path d="M312.951 292.354C310.643 292.354 308.335 291.767 306.289 290.569L276.439 273.352C274.959 272.503 274.458 270.587 275.307 269.107C276.156 267.627 278.072 267.104 279.553 267.975L309.402 285.193C311.601 286.455 314.323 286.455 316.522 285.193L341.908 270.544C344.934 268.802 348.701 268.802 351.706 270.544L361.938 276.442C363.419 277.291 363.92 279.207 363.071 280.687C362.222 282.167 360.306 282.668 358.825 281.819L348.592 275.92C347.482 275.289 346.11 275.289 345 275.92L319.613 290.569C317.567 291.767 315.259 292.354 312.951 292.354Z" fill="#231523"/>
<g style="mix-blend-mode:screen" opacity="0.3">
<path d="M313.06 288.589C311.122 288.589 309.206 288.088 307.53 287.108L277.68 269.891C277.419 269.738 277.332 269.521 277.288 269.39C277.267 269.259 277.223 269.02 277.376 268.759C277.528 268.497 277.789 268.345 278.094 268.345C278.246 268.345 278.377 268.389 278.508 268.454L308.357 285.694C309.773 286.521 311.405 286.956 313.06 286.956C314.715 286.956 316.326 286.521 317.763 285.694L343.149 271.044C344.282 270.391 345.588 270.043 346.916 270.043C348.244 270.043 349.55 270.391 350.683 271.044L360.915 276.943C361.177 277.096 361.264 277.313 361.307 277.444C361.329 277.574 361.373 277.814 361.22 278.075C361.068 278.336 360.807 278.489 360.502 278.489C360.349 278.489 360.219 278.445 360.088 278.38L349.855 272.481C348.963 271.958 347.939 271.697 346.916 271.697C345.893 271.697 344.869 271.958 343.977 272.481L318.59 287.13C316.914 288.088 315.02 288.61 313.06 288.61V288.589Z" fill="#583560"/>
</g>
<path d="M233.308 355C231.588 355 230.217 353.607 230.217 351.887V340.264C230.217 339.676 229.738 339.219 229.172 339.219H192.964C187.652 339.219 183.319 334.887 183.319 329.576V302.628C183.319 299.733 189.524 299.712 189.524 302.628V329.576C189.524 331.47 191.07 333.015 192.964 333.015H229.172C233.178 333.015 236.422 336.259 236.422 340.264V351.887C236.422 353.607 235.028 355 233.33 355H233.308Z" fill="#231523"/>
<g style="mix-blend-mode:screen" opacity="0.3">
<path d="M233.309 351.06C232.852 351.06 232.482 350.69 232.482 350.233V338.609C232.482 336.781 231.001 335.279 229.151 335.279H192.943C188.872 335.279 185.584 331.97 185.584 327.922V300.974C185.584 300.517 187.239 300.517 187.239 300.974V327.922C187.239 331.078 189.808 333.625 192.943 333.625H229.151C231.894 333.625 234.136 335.867 234.136 338.609V350.233C234.136 350.69 233.766 351.06 233.309 351.06Z" fill="#583560"/>
</g>
<path d="M84.5831 293.268C82.4712 293.268 80.3811 292.724 78.4869 291.636L53.2747 277.074C51.4676 276.029 49.2469 276.029 47.4398 277.074L34.0281 284.823C32.5476 285.672 30.6534 285.171 29.7826 283.691C28.9334 282.211 29.4342 280.317 30.9147 279.446L44.3264 271.697C48.0277 269.564 52.6434 269.564 56.3664 271.697L81.5786 286.259C83.4292 287.326 85.7153 287.326 87.5441 286.259L119.832 267.627C121.313 266.778 123.207 267.279 124.078 268.759C124.927 270.239 124.426 272.133 122.946 273.003L90.6576 291.636C88.7852 292.724 86.6733 293.268 84.5613 293.268H84.5831Z" fill="#231523"/>
<g style="mix-blend-mode:screen" opacity="0.3">
<path d="M84.5833 289.067C82.8415 289.067 81.1215 288.61 79.641 287.74L54.4288 273.177C53.2096 272.459 51.7944 272.089 50.3792 272.089C48.964 272.089 47.5488 272.459 46.3295 273.177L32.9179 280.927C32.7872 280.992 32.6566 281.035 32.5042 281.035C32.1994 281.035 31.9381 280.883 31.7857 280.622C31.6333 280.361 31.6769 280.121 31.6986 279.991C31.7422 279.86 31.8293 279.642 32.0905 279.49L45.5022 271.741C46.9827 270.892 48.6592 270.435 50.3792 270.435C52.0992 270.435 53.7756 270.892 55.2561 271.741L80.4683 286.303C81.7093 287.021 83.1463 287.413 84.5833 287.413C86.0202 287.413 87.4572 287.043 88.6982 286.303L120.986 267.67C121.117 267.605 121.248 267.561 121.4 267.561C121.705 267.561 121.966 267.714 122.119 267.975C122.271 268.236 122.227 268.476 122.206 268.606C122.162 268.737 122.075 268.955 121.814 269.107L89.5255 287.74C88.0233 288.61 86.3033 289.067 84.5833 289.067Z" fill="#583560"/>
</g>
<defs>
<linearGradient id="paint0_linear_747_8755" x1="276.215" y1="209.99" x2="295.244" y2="209.99" gradientUnits="userSpaceOnUse">
<stop stop-color="#033537"/>
<stop offset="1" stop-color="#48B6E2"/>
</linearGradient>
<linearGradient id="paint1_linear_747_8755" x1="248.978" y1="188.245" x2="322.481" y2="188.245" gradientUnits="userSpaceOnUse">
<stop stop-color="#06314D"/>
<stop offset="1" stop-color="#4ABAE7"/>
</linearGradient>
<linearGradient id="paint2_linear_747_8755" x1="270.489" y1="182.324" x2="300.97" y2="182.324" gradientUnits="userSpaceOnUse">
<stop stop-color="#3C9DC6"/>
<stop offset="1" stop-color="#2A637A"/>
</linearGradient>
<linearGradient id="paint3_linear_747_8755" x1="104.215" y1="208.99" x2="123.244" y2="208.99" gradientUnits="userSpaceOnUse">
<stop stop-color="#033537"/>
<stop offset="1" stop-color="#48B6E2"/>
</linearGradient>
<linearGradient id="paint4_linear_747_8755" x1="76.9782" y1="187.245" x2="150.481" y2="187.245" gradientUnits="userSpaceOnUse">
<stop stop-color="#06314D"/>
<stop offset="1" stop-color="#4ABAE7"/>
</linearGradient>
<linearGradient id="paint5_linear_747_8755" x1="98.4888" y1="181.324" x2="128.97" y2="181.324" gradientUnits="userSpaceOnUse">
<stop stop-color="#3C9DC6"/>
<stop offset="1" stop-color="#2A637A"/>
</linearGradient>
<linearGradient id="paint6_linear_747_8755" x1="119.215" y1="253.99" x2="138.244" y2="253.99" gradientUnits="userSpaceOnUse">
<stop stop-color="#033537"/>
<stop offset="1" stop-color="#48B6E2"/>
</linearGradient>
<linearGradient id="paint7_linear_747_8755" x1="91.9782" y1="232.245" x2="165.481" y2="232.245" gradientUnits="userSpaceOnUse">
<stop stop-color="#06314D"/>
<stop offset="1" stop-color="#4ABAE7"/>
</linearGradient>
<linearGradient id="paint8_linear_747_8755" x1="113.489" y1="226.324" x2="143.97" y2="226.324" gradientUnits="userSpaceOnUse">
<stop stop-color="#3C9DC6"/>
<stop offset="1" stop-color="#2A637A"/>
</linearGradient>
<linearGradient id="paint9_linear_747_8755" x1="190.215" y1="237.99" x2="209.244" y2="237.99" gradientUnits="userSpaceOnUse">
<stop stop-color="#033537"/>
<stop offset="1" stop-color="#48B6E2"/>
</linearGradient>
<linearGradient id="paint10_linear_747_8755" x1="162.978" y1="216.245" x2="236.481" y2="216.245" gradientUnits="userSpaceOnUse">
<stop stop-color="#06314D"/>
<stop offset="1" stop-color="#4ABAE7"/>
</linearGradient>
<linearGradient id="paint11_linear_747_8755" x1="184.489" y1="210.324" x2="214.97" y2="210.324" gradientUnits="userSpaceOnUse">
<stop stop-color="#3C9DC6"/>
<stop offset="1" stop-color="#2A637A"/>
</linearGradient>
<linearGradient id="paint12_linear_747_8755" x1="177.215" y1="284.99" x2="196.244" y2="284.99" gradientUnits="userSpaceOnUse">
<stop stop-color="#033537"/>
<stop offset="1" stop-color="#48B6E2"/>
</linearGradient>
<linearGradient id="paint13_linear_747_8755" x1="149.978" y1="263.245" x2="223.481" y2="263.245" gradientUnits="userSpaceOnUse">
<stop stop-color="#06314D"/>
<stop offset="1" stop-color="#4ABAE7"/>
</linearGradient>
<linearGradient id="paint14_linear_747_8755" x1="171.489" y1="257.324" x2="201.97" y2="257.324" gradientUnits="userSpaceOnUse">
<stop stop-color="#3C9DC6"/>
<stop offset="1" stop-color="#2A637A"/>
</linearGradient>
<linearGradient id="paint15_linear_747_8755" x1="260.215" y1="254.99" x2="279.244" y2="254.99" gradientUnits="userSpaceOnUse">
<stop stop-color="#033537"/>
<stop offset="1" stop-color="#48B6E2"/>
</linearGradient>
<linearGradient id="paint16_linear_747_8755" x1="232.978" y1="233.245" x2="306.481" y2="233.245" gradientUnits="userSpaceOnUse">
<stop stop-color="#06314D"/>
<stop offset="1" stop-color="#4ABAE7"/>
</linearGradient>
<linearGradient id="paint17_linear_747_8755" x1="254.489" y1="227.324" x2="284.97" y2="227.324" gradientUnits="userSpaceOnUse">
<stop stop-color="#3C9DC6"/>
<stop offset="1" stop-color="#2A637A"/>
</linearGradient>
<linearGradient id="paint18_linear_747_8755" x1="274.98" y1="5.3983" x2="69.9075" y2="189.812" gradientUnits="userSpaceOnUse">
<stop stop-color="#FFD3F9"/>
<stop offset="0.64" stop-color="#FFADF5"/>
<stop offset="1" stop-color="#FF9EF4"/>
</linearGradient>
<linearGradient id="paint19_linear_747_8755" x1="232.939" y1="-27.4702" x2="34.7006" y2="150.761" gradientUnits="userSpaceOnUse">
<stop stop-color="#2AF6FF"/>
<stop offset="0.64" stop-color="#2A637A"/>
<stop offset="1" stop-color="#005288"/>
</linearGradient>
<linearGradient id="paint20_linear_747_8755" x1="270.475" y1="0.370048" x2="65.38" y2="184.786" gradientUnits="userSpaceOnUse">
<stop stop-color="#FFD3F9"/>
<stop offset="0.64" stop-color="#FFADF5"/>
<stop offset="1" stop-color="#FF9EF4"/>
</linearGradient>
<linearGradient id="paint21_linear_747_8755" x1="357.672" y1="76.5767" x2="152.207" y2="261.318" gradientUnits="userSpaceOnUse">
<stop stop-color="#2A637A"/>
<stop offset="0.64" stop-color="#005288"/>
<stop offset="1" stop-color="#2AF6FF"/>
</linearGradient>
<linearGradient id="paint22_linear_747_8755" x1="174.894" y1="208.333" x2="225.275" y2="208.333" gradientUnits="userSpaceOnUse">
<stop stop-color="#2A637A"/>
<stop offset="1" stop-color="#005288"/>
</linearGradient>
<linearGradient id="paint23_linear_747_8755" x1="171.562" y1="194.75" x2="228.605" y2="194.75" gradientUnits="userSpaceOnUse">
<stop stop-color="#2AF6FF"/>
<stop offset="1" stop-color="#A6F6FA"/>
</linearGradient>
<linearGradient id="paint24_linear_747_8755" x1="174.023" y1="200.127" x2="226.124" y2="200.127" gradientUnits="userSpaceOnUse">
<stop stop-color="#2A637A"/>
<stop offset="1" stop-color="#005288"/>
</linearGradient>
<linearGradient id="paint25_linear_747_8755" x1="171.535" y1="187.718" x2="228.578" y2="187.718" gradientUnits="userSpaceOnUse">
<stop stop-color="#2AF6FF"/>
<stop offset="1" stop-color="#A6F6FA"/>
</linearGradient>
<linearGradient id="paint26_linear_747_8755" x1="174.001" y1="193.096" x2="226.102" y2="193.096" gradientUnits="userSpaceOnUse">
<stop stop-color="#2A637A"/>
<stop offset="1" stop-color="#005288"/>
</linearGradient>
<linearGradient id="paint27_linear_747_8755" x1="171.513" y1="180.665" x2="228.556" y2="180.665" gradientUnits="userSpaceOnUse">
<stop stop-color="#2AF6FF"/>
<stop offset="1" stop-color="#A6F6FA"/>
</linearGradient>
<linearGradient id="paint28_linear_747_8755" x1="173.979" y1="186.065" x2="226.08" y2="186.065" gradientUnits="userSpaceOnUse">
<stop stop-color="#2A637A"/>
<stop offset="1" stop-color="#005288"/>
</linearGradient>
<linearGradient id="paint29_linear_747_8755" x1="171.562" y1="204.372" x2="228.605" y2="204.372" gradientUnits="userSpaceOnUse">
<stop stop-color="#005288"/>
<stop offset="1" stop-color="#2AF6FF"/>
</linearGradient>
<linearGradient id="paint30_linear_747_8755" x1="171.54" y1="197.341" x2="228.583" y2="197.341" gradientUnits="userSpaceOnUse">
<stop stop-color="#005288"/>
<stop offset="1" stop-color="#2AF6FF"/>
</linearGradient>
<linearGradient id="paint31_linear_747_8755" x1="171.519" y1="190.288" x2="228.562" y2="190.288" gradientUnits="userSpaceOnUse">
<stop stop-color="#005288"/>
<stop offset="1" stop-color="#2AF6FF"/>
</linearGradient>
<linearGradient id="paint32_linear_747_8755" x1="167.078" y1="176.314" x2="232.851" y2="176.314" gradientUnits="userSpaceOnUse">
<stop stop-color="#2A637A"/>
<stop offset="1" stop-color="#2AF6FF"/>
</linearGradient>
<linearGradient id="paint33_linear_747_8755" x1="167.078" y1="159.88" x2="232.808" y2="159.88" gradientUnits="userSpaceOnUse">
<stop stop-color="#072B39"/>
<stop offset="1" stop-color="#63D7DC"/>
</linearGradient>
<radialGradient id="paint34_radial_747_8755" cx="0" cy="0" r="1" gradientUnits="userSpaceOnUse" gradientTransform="translate(232.024 55.2668) scale(146.026 145.992)">
<stop stop-color="#F7FF85"/>
<stop offset="1" stop-color="#FFC300"/>
</radialGradient>
<linearGradient id="paint35_linear_747_8755" x1="201.13" y1="86.0236" x2="192.686" y2="161.273" gradientUnits="userSpaceOnUse">
<stop stop-color="#F7FFB0"/>
<stop offset="0.5" stop-color="#F7FF85"/>
<stop offset="1" stop-color="#FBE142"/>
</linearGradient>
<linearGradient id="paint36_linear_747_8755" x1="219.352" y1="50.848" x2="187.84" y2="163.061" gradientUnits="userSpaceOnUse">
<stop stop-color="white"/>
<stop offset="0.03" stop-color="#F2F2F2"/>
<stop offset="0.25" stop-color="#A9A9A9"/>
<stop offset="0.44" stop-color="#6D6D6D"/>
<stop offset="0.62" stop-color="#3E3E3E"/>
<stop offset="0.78" stop-color="#1C1C1C"/>
<stop offset="0.91" stop-color="#070707"/>
<stop offset="1"/>
</linearGradient>
</defs>
</svg>
